<?xml version="1.0" encoding="UTF-8"?>
<!DOCTYPE svg PUBLIC "-//W3C//DTD SVG 1.1//EN" "http://www.w3.org/Graphics/SVG/1.1/DTD/svg11.dtd">
<!-- Creator: CorelDRAW -->
<svg xmlns="http://www.w3.org/2000/svg" xml:space="preserve" width="2048px" height="2048px" style="shape-rendering:geometricPrecision; text-rendering:geometricPrecision; image-rendering:optimizeQuality; fill-rule:evenodd; clip-rule:evenodd"
viewBox="0 0 2048 2048"
 xmlns:xlink="http://www.w3.org/1999/xlink">
 <defs>
  <style type="text/css">
   <![CDATA[
    .fil2 {fill:none}
    .fil3 {fill:#01579B}
    .fil6 {fill:#38261A}
    .fil10 {fill:#3E2723}
    .fil9 {fill:#6D4C41}
    .fil4 {fill:#89A0A8}
    .fil1 {fill:#AFB42B}
    .fil0 {fill:#D4E157}
    .fil5 {fill:#FFFFFE}
    .fil7 {fill:#2AC0F7;fill-rule:nonzero}
    .fil8 {fill:#B0BEC5;fill-rule:nonzero}
   ]]>
  </style>
   <clipPath id="id0">
    <path d="M1024 0c565.539,0 1024,458.461 1024,1024 0,565.539 -458.461,1024 -1024,1024 -565.539,0 -1024,-458.461 -1024,-1024 0,-565.539 458.461,-1024 1024,-1024z"/>
   </clipPath>
 </defs>
 <g id="Layer_x0020_1">
  <metadata id="CorelCorpID_0Corel-Layer"/>
  <path class="fil0" d="M1024 0c565.539,0 1024,458.461 1024,1024 0,565.539 -458.461,1024 -1024,1024 -565.539,0 -1024,-458.461 -1024,-1024 0,-565.539 458.461,-1024 1024,-1024z"/>
  <g style="clip-path:url(#id0)">
   <g id="_341217928">
    <g>
     <polygon id="_3333183601" class="fil1" points="1571.73,541.112 2707.62,1676.99 2709.34,1679.24 2710.94,1681.57 2712.43,1683.97 2713.79,1686.44 2715.03,1688.98 2716.13,1691.58 2717.1,1694.24 2717.94,1696.95 2718.63,1699.72 2719.17,1702.54 2719.56,1705.4 2719.8,1708.29 2719.88,1711.23 2719.88,1755.95 1584,620.071 1584,575.35 1583.92,572.412 1583.68,569.513 1583.29,566.653 1582.75,563.839 1582.05,561.071 1581.22,558.357 1580.25,555.697 1579.15,553.098 1577.91,550.559 1576.55,548.089 1575.06,545.689 1573.45,543.362 "/>
     <polygon id="_333318456" class="fil1" points="1584,620.071 2719.88,1755.95 2719.88,1872.62 1584,736.738 "/>
     <polygon id="_333319008" class="fil1" points="1584,736.738 2719.88,1872.62 2719.88,1965.95 1584,830.071 "/>
     <polygon id="_333319728" class="fil1" points="1584,830.071 2719.88,1965.95 2719.88,1982.99 1584,847.104 "/>
     <polygon id="_333319488" class="fil1" points="1584,847.104 2719.88,1982.99 2719.88,1996.11 1584,860.228 "/>
     <polygon id="_333319512" class="fil1" points="1584,860.228 2719.88,1996.11 2719.88,2006.06 1584,870.174 "/>
     <polygon id="_333319224" class="fil1" points="1584,870.174 2719.88,2006.06 2719.88,2019.18 1584,883.3 "/>
     <polygon id="_333319128" class="fil1" points="1584,883.3 2719.88,2019.18 2719.88,2029.13 1584,893.246 "/>
     <polygon id="_333319752" class="fil1" points="1584,893.246 2719.88,2029.13 2719.88,2042.25 1584,906.372 "/>
     <polygon id="_333319584" class="fil1" points="1584,906.372 2719.88,2042.25 2719.88,2059.29 1584,923.404 "/>
     <polygon id="_333319248" class="fil1" points="1584,923.404 2719.88,2059.29 2719.88,2267.34 2719.8,2270.28 2719.56,2273.18 2719.17,2276.04 2718.63,2278.85 2717.93,2281.62 2717.1,2284.34 2716.13,2287 2715.02,2289.6 2713.79,2292.13 2712.42,2294.6 2710.94,2297 2709.33,2299.33 2707.61,2301.58 2705.78,2303.75 2703.84,2305.83 2701.8,2307.83 2699.66,2309.73 2697.42,2311.53 2695.09,2313.24 2692.68,2314.84 2690.18,2316.34 2687.61,2317.73 2684.95,2319 2682.23,2320.15 2679.44,2321.18 2676.58,2322.08 2673.67,2322.86 2670.7,2323.5 2667.68,2324.01 2664.61,2324.38 2661.5,2324.6 2658.34,2324.67 2288.53,2324.67 1152.65,1188.79 1522.46,1188.79 1525.61,1188.72 1528.73,1188.49 1531.8,1188.13 1534.82,1187.62 1537.79,1186.98 1540.7,1186.2 1543.56,1185.3 1546.35,1184.27 1549.07,1183.11 1551.72,1181.84 1554.3,1180.46 1556.8,1178.96 1559.21,1177.36 1561.54,1175.65 1563.78,1173.85 1565.92,1171.94 1567.96,1169.95 1569.9,1167.87 1571.73,1165.7 1573.45,1163.45 1575.05,1161.12 1576.54,1158.72 1577.91,1156.25 1579.14,1153.71 1580.25,1151.11 1581.22,1148.45 1582.05,1145.74 1582.74,1142.97 1583.29,1140.16 1583.68,1137.3 1583.92,1134.4 1584,1131.46 "/>
     <polygon id="_333319320" class="fil1" points="1152.65,1188.79 2288.53,2324.67 2288.53,2616.79 1152.65,1480.91 "/>
     <polygon id="_333319416" class="fil1" points="1152.65,1480.91 2288.53,2616.79 2288.46,2619.31 2288.27,2621.8 2287.96,2624.25 2287.53,2626.67 2286.98,2629.04 2286.31,2631.36 2285.54,2633.64 2284.66,2635.87 2283.68,2638.04 2282.59,2640.16 2281.41,2642.21 2280.13,2644.2 2278.76,2646.13 2277.3,2647.98 2275.76,2649.76 2274.13,2651.47 1138.25,1515.59 1139.88,1513.88 1141.42,1512.1 1142.88,1510.25 1144.25,1508.32 1145.53,1506.33 1146.71,1504.28 1147.79,1502.16 1148.78,1499.99 1149.66,1497.76 1150.43,1495.48 1151.1,1493.16 1151.65,1490.78 1152.08,1488.37 1152.39,1485.92 1152.58,1483.43 "/>
     <polygon id="_333319800" class="fil1" points="1138.25,1515.59 2274.13,2651.47 2272.43,2653.09 2270.65,2654.64 2268.79,2656.09 2266.87,2657.46 2264.88,2658.74 2262.82,2659.93 2260.71,2661.01 2258.53,2662 2256.31,2662.88 2254.03,2663.65 2251.7,2664.31 2249.33,2664.86 2246.92,2665.3 2244.47,2665.61 2241.98,2665.8 2239.46,2665.86 1103.58,1529.98 1106.1,1529.92 1108.58,1529.73 1111.04,1529.41 1113.45,1528.98 1115.82,1528.43 1118.15,1527.77 1120.43,1527 1122.65,1526.11 1124.83,1525.13 1126.94,1524.04 1129,1522.86 1130.99,1521.58 1132.91,1520.21 1134.77,1518.75 1136.55,1517.21 "/>
     <polygon id="_333319920" class="fil1" points="709.313,1188.79 1845.19,2324.67 1661.42,2324.67 1658.27,2324.6 1655.15,2324.38 1652.09,2324.01 1649.06,2323.5 1646.09,2322.86 1643.18,2322.09 1640.32,2321.18 1637.53,2320.15 1634.81,2319 1632.16,2317.73 1629.58,2316.34 1627.08,2314.85 1624.67,2313.25 1622.34,2311.54 1620.11,2309.73 484.225,1173.85 486.461,1175.66 488.788,1177.36 491.202,1178.97 493.7,1180.46 496.277,1181.85 498.929,1183.12 501.652,1184.27 504.443,1185.3 507.298,1186.2 510.213,1186.98 513.182,1187.62 516.205,1188.13 519.273,1188.49 522.387,1188.72 525.539,1188.79 "/>
     <polygon id="_333319968" class="fil1" points="758.382,1529.98 1894.26,2665.86 1891.74,2665.8 1889.26,2665.61 1886.8,2665.3 1884.39,2664.86 1882.02,2664.31 1879.69,2663.65 1877.41,2662.88 1875.19,2662 1873.01,2661.01 1870.9,2659.93 1868.84,2658.74 1866.85,2657.46 1864.93,2656.09 1863.07,2654.64 727.193,1518.75 729.048,1520.21 730.972,1521.58 732.963,1522.86 735.018,1524.04 737.134,1525.13 739.307,1526.11 741.533,1527 743.813,1527.77 746.138,1528.43 748.51,1528.98 750.923,1529.41 753.375,1529.73 755.862,1529.92 "/>
     <polygon id="_333320016" class="fil1" points="1103.58,1529.98 2239.46,2665.86 1894.26,2665.86 758.382,1529.98 "/>
    </g>
    <path id="_341218288" class="fil1" d="M525.539 518.019l996.923 0c33.8469,0 61.539,25.8177 61.539,57.3308l0 44.7213 0 116.667 0 93.3331 0 17.0327 0 13.1244 0 9.94607 0 13.1256 0 9.94607 0 13.1256 0 17.0327 0 208.056c0,31.5142 -27.7134,57.3319 -61.539,57.3319l-369.815 0 0 292.12c0,13.5177 -5.51339,25.7918 -14.3953,34.6736 -8.8819,8.8819 -21.1559,14.3953 -34.6736,14.3953l-345.196 0c-13.5177,0 -25.7918,-5.51339 -34.6736,-14.3953 -8.8819,-8.8819 -14.3953,-21.1559 -14.3953,-34.6736l0 -292.12 -183.774 0c-33.8268,0 -61.5402,-25.7988 -61.5402,-57.3319l0 -208.056 0 -17.0327 0 -13.1256 0 -9.94607 0 -13.1256 0 -9.94607 0 -13.1244 0 -17.0327 0 -93.3331 0 -116.667 0 -44.7213c0,-31.5331 27.6921,-57.3308 61.5402,-57.3308z"/>
   </g>
  </g>
  <path class="fil2" d="M1024 0c565.539,0 1024,458.461 1024,1024 0,565.539 -458.461,1024 -1024,1024 -565.539,0 -1024,-458.461 -1024,-1024 0,-565.539 458.461,-1024 1024,-1024z"/>
  <path class="fil3" d="M525.539 518.019l996.923 0c33.8469,0 61.539,25.8177 61.539,57.3308l0 556.111c0,31.5142 -27.7122,57.3319 -61.539,57.3319l-996.923 0c-33.8268,0 -61.539,-25.7988 -61.539,-57.3319l0 -556.111c0,-31.5331 27.691,-57.3308 61.539,-57.3308z"/>
  <polygon class="fil4" points="1584,830.071 1584,923.404 463.999,923.404 463.999,830.071 "/>
  <path class="fil5" d="M1584 847.104l0 13.1244 -1120 0 0 -13.1244 1120 0zm0 23.0717l0 13.1244 -1120 0 0 -13.1244 1120 0zm0 23.0705l0 13.1256 -1120 0 0 -13.1256 1120 0z"/>
  <polygon class="fil6" points="1584,620.071 1584,736.738 463.999,736.738 463.999,620.071 "/>
  <path class="fil7" d="M1268.17 1145.28l-5.69646 0 0 -21.4784c-2.08347,1.95236 -4.53426,3.39095 -7.35709,4.31929l0 -5.17087c1.4811,-0.484252 3.1004,-1.40551 4.84489,-2.76142 1.74331,-1.36417 2.94213,-2.94921 3.58465,-4.76221l4.62402 0 0 29.8536zm27.7642 -5.29489l0 5.29489 -19.976 0c0.222047,-2.00079 0.864568,-3.89646 1.95118,-5.68937 1.08071,-1.79291 3.21851,-4.16693 6.40394,-7.12914 2.57481,-2.38819 4.14567,-4.01575 4.72678,-4.86615 0.78189,-1.17756 1.17638,-2.33977 1.17638,-3.48898 0,-1.26732 -0.337796,-2.24292 -1.02402,-2.92796 -0.68504,-0.686221 -1.62638,-1.0252 -2.8311,-1.0252 -1.19055,0 -2.13189,0.360236 -2.83819,1.07362 -0.698032,0.719292 -1.10787,1.91103 -1.21772,3.57166l-5.67638 -0.568111c0.338977,-3.13465 1.39843,-5.38583 3.18425,-6.75591 1.78583,-1.36299 4.01457,-2.04803 6.69331,-2.04803 2.93504,0 5.24056,0.794883 6.91536,2.37402 1.6748,1.58504 2.51221,3.5504 2.51221,5.90434 0,1.33583 -0.242126,2.61024 -0.719292,3.82087 -0.477166,1.21181 -1.23898,2.47795 -2.27717,3.80079 -0.693308,0.87756 -1.93819,2.14488 -3.73111,3.79252 -1.8,1.64764 -2.94213,2.74843 -3.41929,3.28819 -0.478347,0.539764 -0.872835,1.06536 -1.17047,1.57795l11.3173 0zm23.1614 -17.1532l-5.51693 0.609449c-0.131102,-1.13504 -0.484252,-1.97244 -1.05236,-2.51929 -0.56693,-0.539764 -1.30748,-0.810237 -2.21457,-0.810237 -1.19764,0 -2.21575,0.539764 -3.05197,1.62638 -0.831497,1.08071 -1.35,3.32953 -1.57205,6.74882 1.42559,-1.6748 3.18425,-2.51221 5.29607,-2.51221 2.3811,0 4.41615,0.907087 6.11221,2.72126 1.69488,1.80591 2.54646,4.14567 2.54646,7.01103 0,3.04607 -0.892914,5.48268 -2.67874,7.32402 -1.77874,1.83425 -4.07717,2.75433 -6.87402,2.75433 -2.99646,0 -5.46733,-1.16339 -7.39961,-3.49488 -1.92992,-2.33386 -2.89961,-6.15355 -2.89961,-11.4697 0,-5.44725 1.00394,-9.37324 3.01772,-11.7815 2.01496,-2.40945 4.63111,-3.61299 7.84961,-3.61299 2.25591,0 4.12559,0.636615 5.6067,1.89567 1.4811,1.26732 2.42244,3.10158 2.8311,5.50985zm-12.9165 12.4323c0,1.84843 0.422835,3.2811 1.27441,4.28504 0.850394,1.01102 1.82717,1.51536 2.92087,1.51536 1.05827,0 1.9311,-0.415748 2.6374,-1.23898 0.7063,-0.823229 1.05236,-2.18032 1.05236,-4.05591 0,-1.9311 -0.37441,-3.34961 -1.13622,-4.24961 -0.754725,-0.900001 -1.70197,-1.35 -2.83819,-1.35 -1.0937,0 -2.02087,0.42874 -2.77559,1.28622 -0.760631,0.858662 -1.13504,2.13307 -1.13504,3.80788zm21.5977 -6.02245c-1.4752,-0.622441 -2.54764,-1.47992 -3.21142,-2.56772 -0.672048,-1.08662 -1.00512,-2.28425 -1.00512,-3.57874 0,-2.21575 0.768898,-4.04882 2.31969,-5.49567 1.55079,-1.44685 3.75118,-2.17323 6.60355,-2.17323 2.82284,0 5.01733,0.726379 6.5752,2.17323 1.56496,1.44685 2.34685,3.27992 2.34685,5.49567 0,1.37835 -0.360236,2.60197 -1.07953,3.68268 -0.713386,1.07244 -1.72441,1.89567 -3.0189,2.46378 1.64764,0.657875 2.90079,1.62638 3.75945,2.90079 0.857481,1.26614 1.2874,2.73425 1.2874,4.39489 0,2.74843 -0.871654,4.97717 -2.62441,6.69449 -1.7504,1.71614 -4.07599,2.57481 -6.98268,2.57481 -2.70709,0 -4.95709,-0.7063 -6.75709,-2.12599 -2.12362,-1.68189 -3.18307,-3.97914 -3.18307,-6.90119 0,-1.6063 0.400394,-3.07914 1.19764,-4.42914 0.796064,-1.34291 2.05512,-2.38229 3.77244,-3.10866zm1.17638 -5.7378c0,1.13504 0.317717,2.02087 0.961418,2.65158 0.644882,0.635434 1.49528,0.954331 2.5689,0.954331 1.07953,0 1.94528,-0.318898 2.59488,-0.961418 0.644882,-0.644882 0.969686,-1.52953 0.969686,-2.66575 0,-1.07244 -0.317717,-1.92402 -0.962599,-2.56772 -0.643701,-0.643701 -1.48819,-0.962599 -2.54646,-0.962599 -1.0937,0 -1.96654,0.325985 -2.61732,0.969686 -0.643701,0.650788 -0.968505,1.50945 -0.968505,2.58189zm-0.526772 12.7287c0,1.57205 0.402756,2.79685 1.20473,3.67559 0.80315,0.879922 1.80709,1.31575 3.01063,1.31575 1.17638,0 2.15315,-0.421654 2.92205,-1.26732 0.767717,-0.843308 1.15512,-2.06221 1.15512,-3.66024 0,-1.39252 -0.394488,-2.51339 -1.17638,-3.35788 -0.78189,-0.844489 -1.77874,-1.26614 -2.98347,-1.26614 -1.39134,0 -2.42953,0.483071 -3.10748,1.43858 -0.686221,0.962599 -1.0252,2.00079 -1.0252,3.12166zm22.4492 -6.99095c-1.4752,-0.622441 -2.54764,-1.47992 -3.21142,-2.56772 -0.672048,-1.08662 -1.00512,-2.28425 -1.00512,-3.57874 0,-2.21575 0.768898,-4.04882 2.31969,-5.49567 1.55079,-1.44685 3.75118,-2.17323 6.60355,-2.17323 2.82284,0 5.01733,0.726379 6.5752,2.17323 1.56496,1.44685 2.34685,3.27992 2.34685,5.49567 0,1.37835 -0.360236,2.60197 -1.07953,3.68268 -0.713386,1.07244 -1.72441,1.89567 -3.0189,2.46378 1.64764,0.657875 2.90079,1.62638 3.75945,2.90079 0.857481,1.26614 1.2874,2.73425 1.2874,4.39489 0,2.74843 -0.871654,4.97717 -2.62441,6.69449 -1.7504,1.71614 -4.07599,2.57481 -6.98268,2.57481 -2.70709,0 -4.95709,-0.7063 -6.75709,-2.12599 -2.1248,-1.68189 -3.18307,-3.97914 -3.18307,-6.90119 0,-1.6063 0.400394,-3.07914 1.19764,-4.42914 0.796064,-1.34291 2.05512,-2.38229 3.77244,-3.10866zm1.17638 -5.7378c0,1.13504 0.317717,2.02087 0.961418,2.65158 0.644882,0.635434 1.49528,0.954331 2.5689,0.954331 1.07953,0 1.94528,-0.318898 2.59488,-0.961418 0.644882,-0.644882 0.969686,-1.52953 0.969686,-2.66575 0,-1.07244 -0.317717,-1.92402 -0.962599,-2.56772 -0.643701,-0.643701 -1.48819,-0.962599 -2.54646,-0.962599 -1.0937,0 -1.96654,0.325985 -2.61732,0.969686 -0.643701,0.650788 -0.968505,1.50945 -0.968505,2.58189zm-0.526772 12.7287c0,1.57205 0.402756,2.79685 1.20473,3.67559 0.80315,0.879922 1.80709,1.31575 3.01063,1.31575 1.17638,0 2.15315,-0.421654 2.92205,-1.26732 0.767717,-0.843308 1.15512,-2.06221 1.15512,-3.66024 0,-1.39252 -0.394488,-2.51339 -1.17638,-3.35788 -0.78189,-0.844489 -1.77874,-1.26614 -2.98347,-1.26614 -1.39134,0 -2.42953,0.483071 -3.10748,1.43858 -0.686221,0.962599 -1.0252,2.00079 -1.0252,3.12166zm17.5618 -14.9858l0 -5.2878 19.4858 0 0 4.13268c-1.6063,1.58504 -3.23977,3.85512 -4.90867,6.81733 -1.66063,2.9563 -2.92796,6.10512 -3.79961,9.43465 -0.872835,3.33662 -1.30158,6.313 -1.2874,8.93623l-5.49685 0c0.0980316,-4.11142 0.941339,-8.29961 2.54764,-12.5705 1.59921,-4.27677 3.73819,-8.09056 6.41693,-11.4626l-12.9579 0zm34.2709 24.0331l0 -5.97993 -12.1689 0 0 -4.99134 12.9024 -18.8823 4.78347 0 0 18.8622 3.68859 0 0 5.01142 -3.68859 0 0 5.97993 -5.51693 0zm0 -10.9913l0 -10.1622 -6.8315 10.1622 6.8315 0zm26.504 10.9913l-5.69646 0 0 -21.4784c-2.08347,1.95236 -4.53426,3.39095 -7.35827,4.31929l0 -5.17087c1.48228,-0.484252 3.1004,-1.40551 4.84607,-2.76142 1.74331,-1.36417 2.94213,-2.94921 3.58465,-4.76221l4.62402 0 0 29.8536zm19.6937 0l0 -5.97993 -12.1689 0 0 -4.99134 12.9024 -18.8823 4.78347 0 0 18.8622 3.68859 0 0 5.01142 -3.68859 0 0 5.97993 -5.51693 0zm0 -10.9913l0 -10.1622 -6.8315 10.1622 6.8315 0zm26.504 10.9913l-5.69646 0 0 -21.4784c-2.08347,1.95236 -4.53426,3.39095 -7.35827,4.31929l0 -5.17087c1.48228,-0.484252 3.1004,-1.40551 4.84607,-2.76142 1.74331,-1.36417 2.94213,-2.94921 3.58465,-4.76221l4.62402 0 0 29.8536zm20.8087 0l-5.69764 0 0 -21.4784c-2.08347,1.95236 -4.53307,3.39095 -7.35709,4.31929l0 -5.17087c1.4811,-0.484252 3.1004,-1.40551 4.84489,-2.76142 1.74449,-1.36417 2.94213,-2.94921 3.58583,-4.76221l4.62402 0 0 29.8536zm18.1488 -29.8536c2.88662,0 5.13662,1.0311 6.75591,3.0874 1.9311,2.42953 2.90079,6.46536 2.90079,12.1063 0,5.61969 -0.976772,9.66261 -2.92087,12.1264 -1.6063,2.02795 -3.84922,3.03898 -6.73583,3.03898 -2.88544,0 -5.2193,-1.10669 -6.99095,-3.33662 -1.77165,-2.22166 -2.65866,-6.1878 -2.65866,-11.8913 0,-5.60079 0.976772,-9.62835 2.92205,-12.0862 1.6063,-2.02795 3.84803,-3.04488 6.72756,-3.04488zm0 4.72678c-0.68504,0 -1.30158,0.222047 -1.84016,0.657875 -0.539764,0.442914 -0.962599,1.23307 -1.26024,2.36811 -0.387402,1.47402 -0.588189,3.95197 -0.588189,7.44095 0,3.4878 0.179528,5.88308 0.525591,7.18465 0.35315,1.30866 0.796064,2.17323 1.32992,2.60906 0.538583,0.429922 1.14803,0.650788 1.83307,0.650788 0.692127,0 1.30866,-0.220866 1.84843,-0.66378 0.539764,-0.437008 0.962599,-1.22599 1.26024,-2.36103 0.387402,-1.46102 0.588189,-3.93189 0.588189,-7.41969 0,-3.48898 -0.180709,-5.88426 -0.525591,-7.19292 -0.35315,-1.30039 -0.797245,-2.17323 -1.32992,-2.61614 -0.539764,-0.435827 -1.14921,-0.657875 -1.84134,-0.657875z"/>
  <path class="fil8" d="M900.354 922.801l61.252 0c36.5174,0 69.7016,14.9232 93.743,38.9646 24.0414,24.0414 38.9646,57.2245 38.9646,93.743l0 101.139 0 23.3339 -23.3339 0 -280.001 0 -23.3339 0 0 -23.3339 0 -101.139c0,-36.5185 14.9232,-69.7016 38.9658,-93.743 24.0402,-24.0414 57.2245,-38.9646 93.743,-38.9646zm61.252 46.6678l-61.252 0c-23.6362,0 -45.1441,9.68741 -60.7477,25.2921 -15.6059,15.6047 -25.2933,37.1114 -25.2933,60.7477l0 77.8052 233.333 0 0 -77.8052c0,-23.6362 -9.68741,-45.1429 -25.2921,-60.7477 -15.6047,-15.6047 -37.1114,-25.2921 -60.7477,-25.2921z"/>
  <path class="fil9" d="M758.382 1133.31l345.196 0c13.5177,0 25.7918,5.51339 34.6736,14.3953 8.8819,8.8819 14.3953,21.1559 14.3953,34.6736l0 298.53c0,13.5177 -5.51339,25.7918 -14.3953,34.6736 -8.8819,8.8819 -21.1559,14.3953 -34.6736,14.3953l-345.196 0c-13.5177,0 -25.7918,-5.51339 -34.6736,-14.3953 -8.8819,-8.8819 -14.3953,-21.1559 -14.3953,-34.6736l0 -298.53c0,-13.5177 5.51339,-25.7918 14.3953,-34.6736 8.8819,-8.8819 21.1559,-14.3953 34.6736,-14.3953z"/>
  <path class="fil10" d="M930.98 1281.05c11.7083,0 22.311,4.74804 29.987,12.4217 7.67363,7.67599 12.4217,18.2788 12.4217,29.987 0,11.7106 -4.74804,22.3134 -12.4217,29.987 -4.1374,4.13622 -9.12402,7.42087 -14.6752,9.57166l0 59.8997c0,8.4567 -6.8563,15.313 -15.3118,15.313 -8.4567,0 -15.313,-6.8563 -15.313,-15.313l0 -59.8985c-5.55237,-2.15079 -10.539,-5.43662 -14.674,-9.57284 -7.67481,-7.67363 -12.4228,-18.2764 -12.4228,-29.987 0,-11.7083 4.74804,-22.311 12.4228,-29.987 7.67363,-7.67363 18.2764,-12.4217 29.987,-12.4217z"/>
 </g>
</svg>
