<?xml version="1.0" encoding="UTF-8"?>
<!DOCTYPE svg PUBLIC "-//W3C//DTD SVG 1.1//EN" "http://www.w3.org/Graphics/SVG/1.1/DTD/svg11.dtd">
<!-- Creator: CorelDRAW -->
<svg xmlns="http://www.w3.org/2000/svg" xml:space="preserve" width="2048px" height="2048px" style="shape-rendering:geometricPrecision; text-rendering:geometricPrecision; image-rendering:optimizeQuality; fill-rule:evenodd; clip-rule:evenodd"
viewBox="0 0 2048 2048"
 xmlns:xlink="http://www.w3.org/1999/xlink">
 <defs>
  <style type="text/css">
   <![CDATA[
    .fil2 {fill:none}
    .fil1 {fill:#8E24AA}
    .fil0 {fill:#BA68C8}
    .fil8 {fill:#141414;fill-rule:nonzero}
    .fil4 {fill:#212121;fill-rule:nonzero}
    .fil7 {fill:#D47703;fill-rule:nonzero}
    .fil3 {fill:#E88000;fill-rule:nonzero}
    .fil9 {fill:#E99A26;fill-rule:nonzero}
    .fil10 {fill:#E9A849;fill-rule:nonzero}
    .fil5 {fill:#FFA726;fill-rule:nonzero}
    .fil6 {fill:#FFB74D;fill-rule:nonzero}
   ]]>
  </style>
   <clipPath id="id0">
    <path d="M1024 0c565.539,0 1024,458.461 1024,1024 0,565.539 -458.461,1024 -1024,1024 -565.539,0 -1024,-458.461 -1024,-1024 0,-565.539 458.461,-1024 1024,-1024z"/>
   </clipPath>
 </defs>
 <g id="Layer_x0020_1">
  <metadata id="CorelCorpID_0Corel-Layer"/>
  <path class="fil0" d="M1024 0c565.539,0 1024,458.461 1024,1024 0,565.539 -458.461,1024 -1024,1024 -565.539,0 -1024,-458.461 -1024,-1024 0,-565.539 458.461,-1024 1024,-1024z"/>
  <g style="clip-path:url(#id0)">
   <g id="_478212760">
    <g>
     <polygon id="_3926132641" class="fil1" points="828.395,987.681 1964.28,2123.56 1962.15,2122.5 1959.95,2121.39 1957.7,2120.26 1955.42,2119.12 1953.13,2117.97 1950.86,2116.82 1948.62,2115.68 1946.43,2114.57 1944.32,2113.5 1942.31,2112.47 1940.42,2111.49 1938.67,2110.58 1937.08,2109.74 1935.67,2108.99 1934.46,2108.33 1933.48,2107.78 797.603,971.894 798.582,972.446 799.786,973.104 801.194,973.856 802.785,974.694 804.538,975.605 806.431,976.583 808.443,977.615 810.552,978.691 812.738,979.801 814.979,980.936 817.254,982.084 819.542,983.237 821.821,984.382 824.071,985.513 826.269,986.615 "/>
     <path id="_392631552" class="fil1" d="M1932.61 2556.55l0 0zm-1135.88 -1135.88l0 0z"/>
     <polygon id="_392617896" class="fil1" points="1321.86,464 2457.74,1599.88 2462.4,1617.2 1326.52,481.317 "/>
     <polygon id="_392631336" class="fil1" points="1326.52,481.317 2462.4,1617.2 2463.06,1619.67 2463.71,1622.14 2464.35,1624.6 2464.98,1627.05 2465.6,1629.5 2466.21,1631.94 2466.81,1634.38 2467.4,1636.8 2467.98,1639.23 2468.55,1641.64 2469.11,1644.05 2469.66,1646.45 2470.2,1648.85 2470.73,1651.24 2471.25,1653.62 2471.76,1656 2472.26,1658.37 2472.76,1660.73 2473.24,1663.09 2473.71,1665.44 2474.17,1667.79 2474.63,1670.12 2475.07,1672.46 2475.5,1674.78 2475.93,1677.1 2476.34,1679.42 2476.75,1681.72 2477.14,1684.02 2477.53,1686.32 2477.91,1688.61 2478.28,1690.89 2478.64,1693.17 1342.76,557.283 1342.4,555.008 1342.03,552.724 1341.65,550.437 1341.26,548.142 1340.87,545.84 1340.46,543.533 1340.05,541.219 1339.62,538.9 1339.19,536.574 1338.74,534.241 1338.29,531.903 1337.83,529.558 1337.36,527.207 1336.88,524.849 1336.38,522.485 1335.88,520.115 1335.37,517.738 1334.85,515.356 1334.32,512.966 1333.78,510.57 1333.23,508.169 1332.67,505.759 1332.1,503.344 1331.52,500.922 1330.93,498.495 1330.33,496.06 1329.72,493.62 1329.1,491.172 1328.47,488.718 1327.83,486.258 1327.18,483.791 "/>
     <polygon id="_392626848" class="fil1" points="1489.08,557.48 2624.96,1693.36 2626.08,1715.48 1490.2,579.598 "/>
     <polygon id="_392628720" class="fil1" points="1490.2,579.598 2626.08,1715.48 2626.36,1722.76 2626.49,1730.02 2626.45,1737.26 2626.26,1744.48 2625.91,1751.68 2625.4,1758.87 2624.75,1766.03 2623.94,1773.17 2622.99,1780.28 2621.89,1787.36 2620.65,1794.42 2619.27,1801.45 2617.75,1808.45 2616.09,1815.42 2614.3,1822.36 2612.37,1829.26 2610.32,1836.13 2608.14,1842.96 2605.83,1849.75 2603.39,1856.51 2600.84,1863.22 2598.16,1869.9 2595.37,1876.53 2592.47,1883.11 2589.45,1889.65 2586.32,1896.15 2583.08,1902.59 2579.73,1908.99 2576.28,1915.34 2572.73,1921.63 2569.07,1927.87 2565.32,1934.06 1429.44,798.18 1433.19,791.992 1436.85,785.75 1440.4,779.456 1443.85,773.109 1447.2,766.712 1450.44,760.266 1453.57,753.771 1456.59,747.231 1459.49,740.644 1462.28,734.014 1464.96,727.341 1467.51,720.627 1469.95,713.872 1472.25,707.078 1474.44,700.247 1476.49,693.38 1478.42,686.476 1480.21,679.541 1481.87,672.571 1483.39,665.571 1484.77,658.541 1486.01,651.482 1487.11,644.396 1488.06,637.283 1488.87,630.146 1489.52,622.985 1490.03,615.802 1490.38,608.598 1490.57,601.374 1490.61,594.133 1490.48,586.874 "/>
     <polygon id="_392628336" class="fil1" points="1429.44,798.18 2565.32,1934.06 2561.03,1940.89 2556.62,1947.64 2552.1,1954.32 2547.47,1960.93 2542.73,1967.46 2537.89,1973.91 2532.94,1980.29 2527.9,1986.58 2522.76,1992.79 2517.53,1998.92 2512.2,2004.96 2506.79,2010.91 2501.3,2016.77 2495.73,2022.54 2490.08,2028.22 2484.35,2033.8 2478.55,2039.28 2472.69,2044.66 2466.76,2049.94 2460.76,2055.12 2454.71,2060.2 2448.6,2065.16 2442.44,2070.02 2436.22,2074.77 2429.96,2079.41 2423.66,2083.93 2417.31,2088.34 2410.92,2092.63 2404.5,2096.8 2398.05,2100.84 2391.57,2104.77 2385.06,2108.57 1249.18,972.688 1255.69,968.887 1262.17,964.963 1268.62,960.914 1275.04,956.743 1281.43,952.455 1287.77,948.048 1294.08,943.526 1300.34,938.889 1306.56,934.14 1312.72,929.281 1318.83,924.314 1324.88,919.24 1330.88,914.061 1336.81,908.78 1342.67,903.396 1348.47,897.914 1354.2,892.334 1359.85,886.659 1365.42,880.889 1370.91,875.029 1376.32,869.077 1381.64,863.037 1386.88,856.911 1392.02,850.699 1397.06,844.406 1402.01,838.031 1406.85,831.576 1411.59,825.044 1416.22,818.437 1420.74,811.756 1425.15,805.003 "/>
     <polygon id="_392622504" class="fil1" points="1249.18,972.688 2385.06,2108.57 2384.48,2108.9 2383.71,2109.33 2382.75,2109.87 2381.61,2110.5 2380.32,2111.22 2378.88,2112.02 2377.31,2112.89 2375.63,2113.83 2373.84,2114.82 2371.96,2115.85 2370,2116.93 2367.99,2118.04 2365.92,2119.18 2363.83,2120.34 2361.71,2121.5 2359.59,2122.67 1223.71,986.785 1225.83,985.618 1227.95,984.453 1230.04,983.298 1232.11,982.161 1234.12,981.049 1236.08,979.971 1237.95,978.933 1239.74,977.943 1241.43,977.009 1243,976.139 1244.44,975.341 1245.73,974.622 1246.87,973.989 1247.83,973.45 1248.6,973.014 "/>
     <polygon id="_392629392" class="fil1" points="1223.71,986.785 2359.59,2122.67 2358.43,2123.3 2357.28,2123.94 2356.13,2124.56 2355,2125.19 2353.88,2125.8 2352.77,2126.4 2351.69,2127 2350.62,2127.58 2349.58,2128.15 2348.57,2128.7 2347.58,2129.24 2346.63,2129.75 2345.71,2130.25 2344.83,2130.73 2343.99,2131.18 2343.19,2131.62 1207.3,995.733 1208.1,995.302 1208.95,994.847 1209.83,994.37 1210.75,993.871 1211.7,993.353 1212.69,992.817 1213.7,992.264 1214.74,991.696 1215.81,991.115 1216.89,990.52 1218,989.917 1219.12,989.303 1220.25,988.681 1221.4,988.053 1222.55,987.421 "/>
     <polygon id="_392619600" class="fil1" points="1207.3,995.733 2343.19,2131.62 2341.85,2133.15 2340.53,2134.69 2339.2,2136.21 2337.87,2137.73 2336.54,2139.25 2335.22,2140.76 2333.9,2142.26 2332.58,2143.75 2331.26,2145.24 2329.94,2146.72 2328.62,2148.2 2327.31,2149.67 2326,2151.14 2324.69,2152.6 2323.39,2154.05 2322.08,2155.5 2320.78,2156.94 2319.49,2158.37 2318.19,2159.8 2316.9,2161.23 2315.61,2162.64 2314.33,2164.06 2313.05,2165.46 2311.77,2166.87 2310.5,2168.26 2309.23,2169.65 2307.96,2171.04 2306.7,2172.42 2305.44,2173.79 2304.19,2175.16 2302.94,2176.53 2301.7,2177.88 1165.82,1042 1167.06,1040.64 1168.31,1039.28 1169.56,1037.91 1170.82,1036.54 1172.08,1035.16 1173.35,1033.77 1174.62,1032.38 1175.89,1030.98 1177.17,1029.58 1178.45,1028.18 1179.73,1026.76 1181.02,1025.34 1182.31,1023.92 1183.6,1022.49 1184.9,1021.05 1186.2,1019.61 1187.51,1018.17 1188.81,1016.71 1190.12,1015.26 1191.43,1013.79 1192.74,1012.32 1194.06,1010.84 1195.38,1009.36 1196.7,1007.87 1198.02,1006.38 1199.34,1004.87 1200.66,1003.37 1201.99,1001.85 1203.32,1000.33 1204.65,998.805 1205.97,997.272 "/>
     <polygon id="_392621904" class="fil1" points="1165.82,1042 2301.7,2177.88 2298.17,2181.74 2294.69,2185.55 2291.26,2189.31 2287.88,2193.03 2284.56,2196.69 2281.3,2200.32 2278.11,2203.9 2274.98,2207.43 2271.92,2210.93 2268.94,2214.37 2266.04,2217.78 2263.22,2221.13 2260.49,2224.45 2257.84,2227.72 2255.29,2230.95 2252.84,2234.14 2250.48,2237.29 2248.23,2240.39 2246.09,2243.46 2244.06,2246.48 2242.14,2249.46 2240.34,2252.4 2238.66,2255.3 2237.11,2258.16 2235.68,2260.98 2234.39,2263.76 2233.23,2266.51 2232.22,2269.21 2231.34,2271.88 2230.62,2274.5 2230.04,2277.09 2229.62,2279.65 1093.73,1143.76 1094.16,1141.21 1094.73,1138.62 1095.46,1135.99 1096.34,1133.33 1097.35,1130.62 1098.51,1127.88 1099.8,1125.1 1101.23,1122.28 1102.78,1119.42 1104.46,1116.52 1106.26,1113.58 1108.17,1110.59 1110.21,1107.57 1112.35,1104.51 1114.6,1101.41 1116.96,1098.26 1119.41,1095.07 1121.96,1091.84 1124.61,1088.57 1127.34,1085.25 1130.16,1081.89 1133.06,1078.49 1136.04,1075.04 1139.1,1071.55 1142.23,1068.02 1145.42,1064.44 1148.68,1060.81 1152,1057.14 1155.38,1053.43 1158.81,1049.67 1162.29,1045.86 "/>
     <polygon id="_392618280" class="fil1" points="1093.73,1143.76 2229.62,2279.65 2229.52,2280.28 1093.64,1144.4 "/>
     <polygon id="_392618088" class="fil1" points="1093.64,1144.4 2229.52,2280.28 2229.35,2281.74 2229.28,2283.21 2229.33,2284.69 2229.48,2286.2 2229.72,2287.72 2230.06,2289.27 2230.47,2290.83 2230.97,2292.42 2231.53,2294.03 2232.15,2295.67 2232.82,2297.33 2233.55,2299.01 2234.31,2300.72 2235.11,2302.46 2235.94,2304.22 2236.79,2306.02 1100.91,1170.13 1100.06,1168.34 1099.23,1166.58 1098.43,1164.84 1097.67,1163.13 1096.94,1161.44 1096.27,1159.78 1095.64,1158.15 1095.08,1156.54 1094.59,1154.95 1094.18,1153.39 1093.84,1151.84 1093.6,1150.32 1093.45,1148.81 1093.4,1147.32 1093.47,1145.85 "/>
     <polygon id="_392635848" class="fil1" points="1100.91,1170.13 2236.79,2306.02 2237.51,2307.54 2238.24,2309.09 2238.97,2310.64 2239.7,2312.22 2240.43,2313.82 2241.16,2315.43 2241.88,2317.07 2242.6,2318.73 2243.31,2320.42 2244,2322.14 2244.69,2323.88 2245.36,2325.66 2246.02,2327.47 2246.66,2329.31 2247.29,2331.18 2247.89,2333.09 2248.47,2335.04 2249.02,2337.03 2249.55,2339.06 2250.05,2341.13 2250.52,2343.25 2250.96,2345.41 2251.36,2347.62 2251.74,2349.88 2252.07,2352.19 2252.36,2354.55 2252.62,2356.96 2252.83,2359.43 2253,2361.95 2253.12,2364.54 2253.2,2367.18 2253.22,2369.88 1117.34,1234 1117.32,1231.3 1117.24,1228.65 1117.12,1226.07 1116.95,1223.55 1116.74,1221.08 1116.48,1218.66 1116.19,1216.3 1115.85,1213.99 1115.48,1211.74 1115.08,1209.53 1114.64,1207.37 1114.17,1205.25 1113.67,1203.18 1113.14,1201.15 1112.58,1199.16 1112.01,1197.21 1111.4,1195.3 1110.78,1193.42 1110.14,1191.58 1109.48,1189.78 1108.81,1188 1108.12,1186.26 1107.42,1184.54 1106.72,1182.85 1106,1181.19 1105.28,1179.55 1104.55,1177.93 1103.82,1176.34 1103.09,1174.76 1102.36,1173.2 1101.63,1171.66 "/>
     <polygon id="_392639088" class="fil1" points="835.202,991.118 1971.08,2127 1970.15,2126.52 1969.26,2126.07 1968.4,2125.64 1967.57,2125.22 1966.75,2124.8 1965.93,2124.39 1965.11,2123.98 1964.28,2123.56 828.395,987.681 829.23,988.1 830.051,988.511 830.867,988.921 831.688,989.335 832.522,989.755 833.379,990.19 834.27,990.642 "/>
     <polygon id="_392622480" class="fil1" points="797.603,971.894 1933.48,2107.78 1933.39,2107.78 797.512,971.894 "/>
     <polygon id="_392642352" class="fil1" points="1092.49,1339.18 2228.37,2475.07 2229.22,2476.41 2230.19,2477.68 2231.27,2478.87 1095.39,1342.99 1094.31,1341.79 1093.34,1340.53 "/>
     <polygon id="_392643120" class="fil1" points="797.512,971.894 1933.39,2107.78 1926.9,2103.96 1920.44,2100.02 1914.01,2095.96 1907.61,2091.78 1901.24,2087.48 1894.92,2083.06 1888.63,2078.53 1882.4,2073.89 1876.21,2069.14 1870.07,2064.28 1863.98,2059.31 1857.96,2054.24 1851.99,2049.06 1846.09,2043.78 1840.25,2038.4 1834.48,2032.93 698.595,897.046 704.365,902.521 710.204,907.9 716.109,913.178 722.076,918.355 728.103,923.428 734.188,928.396 740.326,933.257 746.516,938.01 752.754,942.652 759.036,947.181 765.361,951.596 771.725,955.895 778.125,960.076 784.558,964.137 791.021,968.077 "/>
     <polygon id="_392626176" class="fil1" points="1101.85,1272.52 2237.73,2408.4 2236.72,2410 2235.69,2411.62 2234.66,2413.28 2233.62,2414.98 2232.59,2416.7 2231.57,2418.46 2230.56,2420.24 2229.58,2422.06 2228.62,2423.92 2227.7,2425.8 2226.81,2427.71 2225.98,2429.66 2225.2,2431.64 2224.47,2433.65 2223.81,2435.69 2223.22,2437.76 2222.71,2439.86 2222.28,2442 2221.94,2444.16 2221.69,2446.36 2221.55,2448.58 2221.51,2450.84 2221.58,2453.12 2221.78,2455.44 2222.1,2457.79 2222.55,2460.17 2223.14,2462.58 2223.88,2465.01 2224.76,2467.48 2225.8,2469.98 2227,2472.51 2228.37,2475.07 1092.49,1339.18 1091.12,1336.63 1089.92,1334.1 1088.88,1331.6 1088,1329.13 1087.26,1326.69 1086.67,1324.28 1086.22,1321.91 1085.9,1319.56 1085.7,1317.24 1085.63,1314.96 1085.66,1312.7 1085.81,1310.47 1086.06,1308.28 1086.4,1306.11 1086.83,1303.98 1087.34,1301.88 1087.93,1299.81 1088.59,1297.77 1089.31,1295.76 1090.1,1293.78 1090.93,1291.83 1091.82,1289.92 1092.74,1288.03 1093.69,1286.18 1094.68,1284.36 1095.69,1282.57 1096.71,1280.82 1097.74,1279.09 1098.78,1277.4 1099.81,1275.74 1100.84,1274.11 "/>
     <polygon id="_392616936" class="fil1" points="1249.74,1420.67 2385.62,2556.55 2391.49,2571.22 1255.61,1435.34 "/>
     <polygon id="_392638104" class="fil1" points="1158.41,1377.6 2294.3,2513.48 2296.39,2515.56 2298.45,2517.77 2300.46,2520.11 2302.42,2522.59 2304.32,2525.21 2306.18,2527.99 2307.97,2530.91 2309.7,2534.01 2311.37,2537.27 2312.97,2540.71 2314.51,2544.32 2315.97,2548.13 2317.35,2552.13 2318.66,2556.34 1182.78,1420.46 1181.47,1416.25 1180.09,1412.25 1178.62,1408.44 1177.09,1404.82 1175.49,1401.39 1173.82,1398.12 1172.09,1395.03 1170.29,1392.1 1168.44,1389.33 1166.54,1386.71 1164.58,1384.23 1162.57,1381.89 1160.51,1379.68 "/>
     <polygon id="_392620608" class="fil1" points="1302.28,1552.01 2438.16,2687.89 2450.95,2719.88 1315.07,1584 "/>
     <polygon id="_392640168" class="fil1" points="1315.07,1584 2450.95,2719.88 2416.56,2719.88 1280.67,1584 "/>
     <polygon id="_392637960" class="fil1" points="1280.67,1584 2416.56,2719.88 2159.88,2719.88 1024,1584 "/>
     <polygon id="_392639832" class="fil1" points="1024,1584 2159.88,2719.88 1901.67,2719.88 765.793,1584 "/>
     <polygon id="_392640768" class="fil1" points="765.793,1584 1901.67,2719.88 1867.28,2719.88 731.395,1584 "/>
     <polygon id="_392625096" class="fil1" points="1117.34,1234 2253.22,2369.88 2253.2,2371.2 2253.14,2372.49 2253.04,2373.78 2252.9,2375.05 2252.72,2376.3 2252.51,2377.54 2252.26,2378.77 2251.98,2379.99 2251.66,2381.2 2251.32,2382.41 2250.94,2383.6 2250.53,2384.79 2250.09,2385.97 2249.63,2387.14 2249.14,2388.31 2248.62,2389.48 2248.08,2390.64 2247.51,2391.8 2246.92,2392.97 2246.32,2394.13 2245.69,2395.29 2245.04,2396.46 2244.37,2397.62 2243.69,2398.79 2242.99,2399.97 2242.27,2401.15 2241.54,2402.34 2240.8,2403.53 2240.05,2404.73 2239.29,2405.95 2238.51,2407.17 2237.73,2408.4 1101.85,1272.52 1102.63,1271.29 1103.41,1270.06 1104.17,1268.85 1104.92,1267.65 1105.66,1266.46 1106.39,1265.27 1107.11,1264.09 1107.81,1262.91 1108.49,1261.74 1109.16,1260.57 1109.8,1259.41 1110.43,1258.25 1111.04,1257.08 1111.63,1255.92 1112.2,1254.76 1112.74,1253.6 1113.26,1252.43 1113.75,1251.26 1114.21,1250.08 1114.65,1248.9 1115.06,1247.72 1115.44,1246.52 1115.78,1245.32 1116.1,1244.11 1116.38,1242.89 1116.63,1241.66 1116.84,1240.42 1117.02,1239.16 1117.16,1237.89 1117.26,1236.61 1117.32,1235.31 "/>
     <path id="_392638680" class="fil1" d="M2385.62 2556.55l0 0zm-1135.88 -1135.88l0 0z"/>
     <polygon id="_392621568" class="fil1" points="1182.78,1420.46 2318.66,2556.34 2318.72,2556.55 1182.84,1420.66 "/>
     <polygon id="_392635440" class="fil1" points="1255.61,1435.34 2391.49,2571.22 2438.16,2687.89 1302.28,1552.01 "/>
    </g>
    <path id="_478225264" class="fil1" d="M1249.74 1420.67l0 0zm-453.01 0l0 0zm-54.2682 -956.668l281.541 0 280.005 0 17.8571 0 4.65591 17.3173c7.10316,26.4189 12.4524,51.7193 16.2366,75.9662l124.197 0.166536 22.1232 0.0295276 1.11969 22.1185c3.92953,77.6812 -20.2205,152.875 -60.756,218.582 -45.1264,73.1469 -110.707,134.641 -180.261,174.508 -2.50748,1.43386 -14.1602,7.87914 -25.4705,14.0965 -6.18544,3.39922 -12.2563,6.71575 -16.4032,8.94804 -14.198,16.4563 -28.2449,31.8024 -41.4874,46.2697 -37.8614,41.3646 -68.4048,74.7343 -72.0827,101.76l-0.090945 0.638977c-1.27441,7.70316 2.69646,16.0866 7.26497,25.7327 7.68071,16.2165 16.4327,34.6961 16.4327,63.8646 0,14.1071 -7.11142,25.3122 -15.4914,38.5193 -10.6878,16.8425 -24.8894,39.2256 -9.35906,66.665 4.19292,7.4067 13.8213,11.1118 24.0059,15.0295 25.4055,9.77481 52.7717,20.3126 66.2788,66.2422l0.0637796 0.209055 51.1666 0 15.7323 0.00354331 5.87008 14.6717 46.6678 116.668 12.7961 31.9925 -34.3985 0 -256.673 0 -258.208 0 -34.3985 0 12.7961 -31.9925 46.6678 -116.668 5.87008 -14.6717 15.7323 -0.00354331 51.1666 0 0.193701 -0.644882c13.5532,-45.5587 40.8237,-56.0634 66.1489,-65.8063 10.1847,-3.91772 19.813,-7.62284 24.0059,-15.0295 15.5303,-27.4394 1.32874,-49.8225 -9.35906,-66.665 -8.37993,-13.2071 -15.4914,-24.4122 -15.4914,-38.5193 0,-29.1685 8.75198,-47.6481 16.4327,-63.8646 4.56851,-9.64607 8.53938,-18.0295 7.26497,-25.7327l-0.090945 -0.638977c-3.67796,-27.026 -34.2213,-60.3957 -72.0827,-101.76 -14.4721,-15.8114 -29.9055,-32.6729 -45.4477,-50.8843 -2.55118,-1.30394 -4.55079,-2.30669 -6.8067,-3.43701 -11.1083,-5.57008 -26.2087,-13.1421 -30.7925,-15.7866l-0.090945 0c-69.3638,-40.0488 -134.61,-101.446 -179.403,-174.304 -40.2662,-65.4934 -64.2249,-140.46 -60.3036,-217.993l1.11969 -22.1185 22.1232 -0.0295276 122.662 -0.164173c3.78307,-24.2481 9.13347,-49.5496 16.2366,-75.9686l4.65591 -17.3173 17.8571 0z"/>
   </g>
  </g>
  <path class="fil2" d="M1024 0c565.539,0 1024,458.461 1024,1024 0,565.539 -458.461,1024 -1024,1024 -565.539,0 -1024,-458.461 -1024,-1024 0,-565.539 458.461,-1024 1024,-1024z"/>
  <path class="fil3" d="M727.257 603.739l-123.21 0.165354c1.67362,59.6587 22.0193,117.563 53.8028,169.259 40.7481,66.2776 100.023,122.086 162.996,158.445l-0.022441 0.0401575c3.53859,2.02677 17.8228,9.19016 28.3536,14.4697 6.79489,3.40748 10.4055,5.18622 11.4295,5.71654l-21.3295 41.38c-4.79292,-2.48032 -7.55906,-3.86811 -10.8815,-5.53347 -11.1083,-5.57008 -26.2087,-13.1421 -30.7925,-15.7866l-0.090945 0c-69.3638,-40.0488 -134.61,-101.446 -179.403,-174.304 -40.2662,-65.4934 -64.2249,-140.46 -60.3036,-217.993l1.11969 -22.1185 22.1232 -0.0295276 146.209 -0.196063 0 46.4847z"/>
  <path class="fil3" d="M1320.75 557.254l146.208 0.196063 22.1232 0.0295276 1.11969 22.1185c3.92953,77.6812 -20.2205,152.875 -60.756,218.582 -45.1264,73.1469 -110.707,134.641 -180.261,174.508 -2.50748,1.43386 -14.1602,7.87914 -25.4705,14.0965 -8.80512,4.83898 -17.3776,9.51024 -20.5004,11.126l-21.3284 -41.38c1.90866,-0.988583 10.2614,-5.55473 19.4067,-10.5803 10.0902,-5.54646 21.3083,-11.7673 24.7406,-13.7315 63.3178,-36.2906 122.936,-92.139 163.856,-158.466 31.9488,-51.789 52.4103,-109.899 54.0768,-169.849l-123.214 -0.165354 0 -46.4847z"/>
  <polygon class="fil4" points="1249.74,1420.67 1255.61,1435.34 1302.28,1552.01 1315.07,1584 1280.67,1584 765.793,1584 731.395,1584 744.191,1552.01 790.858,1435.34 796.729,1420.67 "/>
  <path class="fil5" d="M880.649 1042c-98.2229,-107.31 -240.735,-263.009 -160.702,-560.685l4.65591 -17.3173 17.8571 0 561.546 0 17.8571 0 4.65591 17.3173c80.0327,297.676 -62.478,453.375 -160.702,560.685 -37.8614,41.3646 -68.4048,74.7343 -72.0827,101.76l-0.090945 0.638977c-1.27441,7.70316 2.69646,16.0866 7.26497,25.7327 7.68071,16.2165 16.4327,34.6961 16.4327,63.8646 0,14.1071 -7.11142,25.3122 -15.4914,38.5193 -10.6878,16.8425 -24.8894,39.2256 -9.35906,66.665 4.19292,7.4067 13.8213,11.1118 24.0059,15.0295 25.4055,9.77481 52.7717,20.3126 66.2788,66.2422l0.0637796 0.209055 51.1666 0 15.7311 0 0.0011811 0.00354331 -453.01 0 0.0011811 -0.00354331 15.7311 0 51.1666 0 0.193701 -0.644882c13.5532,-45.5587 40.8237,-56.0634 66.1489,-65.8063 10.1847,-3.91772 19.813,-7.62284 24.0059,-15.0295 15.5303,-27.4394 1.32874,-49.8225 -9.35906,-66.665 -8.37993,-13.2071 -15.4914,-24.4122 -15.4914,-38.5193 0,-29.1685 8.75198,-47.6481 16.4327,-63.8646 4.56851,-9.64607 8.53938,-18.0295 7.26497,-25.7327l-0.090945 -0.638977c-3.67796,-27.026 -34.2213,-60.3957 -72.0827,-101.76z"/>
  <polygon class="fil6" points="1044.92,694.535 1052.56,718.189 1077.46,718.139 1148.03,717.999 1090.85,759.376 1070.71,773.956 1078.44,797.605 1100.36,864.622 1043.36,823.044 1023.23,808.359 1003.1,823.044 946.106,864.622 968.025,797.605 975.76,773.955 955.615,759.376 898.435,717.999 969.003,718.139 993.909,718.189 1001.54,694.535 1023.23,627.334 "/>
  <path class="fil7" d="M727.257 603.739l-123.21 0.165354c1.67362,59.6587 22.0193,117.563 53.8028,169.259 40.7481,66.2776 100.023,122.086 162.996,158.445l-0.022441 0.0401575c3.53859,2.02677 17.8228,9.19016 28.3536,14.4697 6.79489,3.40748 10.4055,5.18622 11.4295,5.71654l-21.3295 41.38c-4.79292,-2.48032 -7.55906,-3.86811 -10.8815,-5.53347 -11.1083,-5.57008 -26.2087,-13.1421 -30.7925,-15.7866l-0.090945 0c-69.3638,-40.0488 -134.61,-101.446 -179.403,-174.304 -40.2662,-65.4934 -64.2249,-140.46 -60.3036,-217.993l1.11969 -22.1185 22.1232 -0.0295276 146.209 -0.196063 0 46.4847z"/>
  <polygon class="fil8" points="1024,1584 765.793,1584 731.395,1584 744.191,1552.01 790.858,1435.34 796.729,1420.67 1024,1420.67 "/>
  <path class="fil9" d="M880.649 1042c-98.2229,-107.31 -240.735,-263.009 -160.702,-560.685l4.65591 -17.3173 17.8571 0 281.541 0 0 956.668 -227.273 0 0.0011811 -0.00354331 15.7311 0 51.1666 0 0.193701 -0.644882c13.5532,-45.5587 40.8237,-56.0634 66.1489,-65.8063 10.1847,-3.91772 19.813,-7.62284 24.0059,-15.0295 15.5303,-27.4394 1.32874,-49.8225 -9.35906,-66.665 -8.37993,-13.2071 -15.4914,-24.4122 -15.4914,-38.5193 0,-29.1685 8.75198,-47.6481 16.4327,-63.8646 4.56851,-9.64607 8.53938,-18.0295 7.26497,-25.7327l-0.090945 -0.638977c-3.67796,-27.026 -34.2213,-60.3957 -72.0827,-101.76z"/>
  <polygon class="fil10" points="1024,808.92 1023.23,808.359 1003.1,823.042 946.106,864.622 968.025,797.604 975.76,773.955 955.615,759.377 898.435,717.999 969.003,718.139 993.91,718.189 1001.54,694.535 1023.23,627.334 1024,629.713 "/>
 </g>
</svg>
