<?xml version="1.0" encoding="UTF-8"?>
<!DOCTYPE svg PUBLIC "-//W3C//DTD SVG 1.1//EN" "http://www.w3.org/Graphics/SVG/1.1/DTD/svg11.dtd">
<!-- Creator: CorelDRAW -->
<svg xmlns="http://www.w3.org/2000/svg" xml:space="preserve" width="2048px" height="2048px" style="shape-rendering:geometricPrecision; text-rendering:geometricPrecision; image-rendering:optimizeQuality; fill-rule:evenodd; clip-rule:evenodd"
viewBox="0 0 2048 2048"
 xmlns:xlink="http://www.w3.org/1999/xlink">
 <defs>
  <style type="text/css">
   <![CDATA[
    .fil2 {fill:none}
    .fil3 {fill:#757575}
    .fil4 {fill:#BDBDBD}
    .fil1 {fill:#FFB300}
    .fil0 {fill:#FFD54F}
   ]]>
  </style>
   <clipPath id="id0">
    <path d="M1024 -0.0011811c565.539,0 1024,458.462 1024,1024 0,565.539 -458.462,1024 -1024,1024 -565.539,0 -1024,-458.462 -1024,-1024 0,-565.539 458.462,-1024 1024,-1024z"/>
   </clipPath>
 </defs>
 <g id="Layer_x0020_1">
  <metadata id="CorelCorpID_0Corel-Layer"/>
  <path class="fil0" d="M1024 -0.0011811c565.539,0 1024,458.462 1024,1024 0,565.539 -458.462,1024 -1024,1024 -565.539,0 -1024,-458.462 -1024,-1024 0,-565.539 458.462,-1024 1024,-1024z"/>
  <g style="clip-path:url(#id0)">
   <g id="_466493576">
    <g>
     <polygon id="_3893002241" class="fil1" points="1326.61,602.678 2462.49,1738.56 2468.96,1746.15 2475.2,1753.85 2481.21,1761.64 2487.01,1769.53 2492.57,1777.52 2497.91,1785.6 2503.03,1793.78 2507.92,1802.07 2512.59,1810.44 2517.03,1818.92 2521.24,1827.5 2525.23,1836.17 2528.99,1844.95 2532.52,1853.82 2535.83,1862.79 2538.91,1871.85 2541.77,1881.02 2544.39,1890.28 2546.79,1899.65 2548.96,1909.11 2550.91,1918.67 2552.63,1928.33 2554.11,1938.08 2555.37,1947.94 2556.4,1957.89 2557.21,1967.94 2557.78,1978.09 2558.12,1988.34 2558.24,1998.69 1422.36,862.807 1422.24,852.459 1421.9,842.21 1421.32,832.06 1420.52,822.009 1419.49,812.055 1418.23,802.201 1416.74,792.444 1415.03,782.786 1413.08,773.227 1410.91,763.765 1408.51,754.403 1405.89,745.138 1403.03,735.973 1399.95,726.905 1396.64,717.936 1393.11,709.065 1389.35,700.291 1385.36,691.617 1381.14,683.041 1376.7,674.562 1372.04,666.184 1367.15,657.902 1362.03,649.718 1356.69,641.633 1351.12,633.645 1345.33,625.757 1339.32,617.965 1333.08,610.273 "/>
     <polygon id="_389303824" class="fil1" points="1422.36,862.807 2558.24,1998.69 2558.18,2005.74 2558.02,2012.76 2557.75,2019.72 2557.36,2026.65 2556.87,2033.53 2556.28,2040.36 2555.57,2047.15 2554.76,2053.9 2553.83,2060.61 2552.8,2067.27 2551.66,2073.89 2550.42,2080.46 2549.07,2086.99 2547.61,2093.47 2546.04,2099.92 2544.37,2106.31 2542.59,2112.67 2540.71,2118.98 2538.72,2125.24 2536.62,2131.47 2534.42,2137.65 2532.11,2143.78 2529.69,2149.87 2527.18,2155.92 2524.55,2161.93 2521.82,2167.89 2518.99,2173.8 2516.05,2179.68 2513.01,2185.51 2509.87,2191.29 2506.62,2197.03 2503.26,2202.73 1367.38,1066.85 1370.74,1061.15 1373.98,1055.41 1377.13,1049.62 1380.17,1043.79 1383.11,1037.92 1385.94,1032 1388.67,1026.04 1391.29,1020.04 1393.81,1013.99 1396.23,1007.9 1398.53,1001.76 1400.74,995.585 1402.83,989.362 1404.83,983.096 1406.71,976.785 1408.49,970.431 1410.16,964.033 1411.73,957.591 1413.19,951.106 1414.54,944.576 1415.78,938.003 1416.92,931.386 1417.95,924.725 1418.87,918.021 1419.69,911.272 1420.4,904.481 1420.99,897.644 1421.48,890.764 1421.87,883.841 1422.14,876.874 1422.3,869.861 "/>
     <polygon id="_462035936" class="fil1" points="1367.38,1066.85 2503.26,2202.73 2151.95,2719.88 1016.07,1584 "/>
    </g>
    <path id="_466496720" class="fil1" d="M1023.52 463.999c109.977,0 204.092,39.1323 282.356,116.483 77.3127,77.3516 116.483,171.428 116.483,282.325 0,75.489 -18.6543,143.495 -54.9745,204.043l-351.31 517.152 -330.764 -510.607c-2.81221,-4.66418 -5.58544,-8.40591 -7.44686,-11.198 -34.4965,-59.6185 -52.2012,-125.799 -52.2012,-199.389 -0.910631,-110.897 38.1815,-204.984 116.483,-282.325 77.3505,-77.341 171.428,-116.483 281.375,-116.483z"/>
   </g>
  </g>
  <path class="fil2" d="M1024 -0.0011811c565.539,0 1024,458.462 1024,1024 0,565.539 -458.462,1024 -1024,1024 -565.539,0 -1024,-458.462 -1024,-1024 0,-565.539 458.462,-1024 1024,-1024z"/>
  <path class="fil3" d="M1305.87 580.482c-78.2634,-77.3505 -172.378,-116.483 -282.356,-116.483 -109.948,0 -204.025,39.1418 -281.375,116.483 -78.3012,77.341 -117.393,171.428 -116.483,282.325 0,73.5898 17.7047,139.771 52.2012,199.389 1.86142,2.79213 4.63465,6.53386 7.44686,11.198l330.764 510.607 351.31 -517.152c36.3201,-60.5481 54.9745,-128.554 54.9745,-204.043 0,-110.897 -39.1701,-204.973 -116.483,-282.325l0 0z"/>
  <path class="fil4" d="M1023.54 683.895c-53.1142,-0.960237 -97.8674,17.713 -135.137,55.9323 -37.2697,37.2508 -55.8851,81.9863 -55.8851,135.098 0,53.093 18.6154,97.8284 55.8851,136.048 37.2792,37.2603 82.0229,55.8851 135.137,55.8851 53.0823,-0.00944883 97.8272,-18.6142 136.019,-55.8851 37.2685,-38.2193 55.9229,-82.9347 55.9229,-136.048 0,-53.1119 -18.6543,-97.8272 -55.9229,-135.098 -38.1815,-38.23 -82.9371,-56.8737 -136.019,-55.9229l0 -0.00944883z"/>
 </g>
</svg>
